<svg width="25" height="25" fill="none" xmlns="http://www.w3.org/2000/svg"><g filter="url(#filter0_i_213_33)"><path d="M20.298 5.103c2.533 3.75 3.783 7.978 3.316 12.847a.073.073 0 01-.03.052 18.484 18.484 0 01-5.607 2.849.07.07 0 01-.079-.027 15.084 15.084 0 01-1.144-1.875.073.073 0 01.038-.1 11.42 11.42 0 001.75-.838.073.073 0 00.006-.12 8.808 8.808 0 01-.348-.275.068.068 0 00-.073-.01c-3.627 1.687-7.599 1.687-11.268 0a.07.07 0 00-.073.01c-.112.094-.23.186-.347.275a.073.073 0 00.007.12c.559.322 1.14.606 1.75.839.039.015.058.06.038.1a13.48 13.48 0 01-1.145 1.875.073.073 0 01-.079.026A18.544 18.544 0 011.412 18a.077.077 0 01-.03-.052c-.39-4.211.406-8.475 3.313-12.847a.066.066 0 01.03-.026A18.353 18.353 0 019.288 3.65a.072.072 0 01.074.035c.198.353.424.805.577 1.175 1.688-.26 3.402-.26 5.125 0 .153-.362.372-.822.569-1.175a.07.07 0 01.073-.035 18.42 18.42 0 014.563 1.425.056.056 0 01.03.027zm-9.501 8.007c.018-1.245-.884-2.275-2.015-2.275-1.122 0-2.015 1.02-2.015 2.275 0 1.254.91 2.275 2.015 2.275 1.122 0 2.015-1.021 2.015-2.275zm7.45 0c.017-1.245-.884-2.275-2.015-2.275-1.123 0-2.015 1.02-2.015 2.275 0 1.254.91 2.275 2.015 2.275 1.13 0 2.015-1.021 2.015-2.275z" fill="#fff"/></g><defs><filter id="filter0_i_213_33" x=".7" y=".7" width="23.6" height="24.1" filterUnits="userSpaceOnUse" color-interpolation-filters="sRGB"><feFlood flood-opacity="0" result="BackgroundImageFix"/><feBlend in="SourceGraphic" in2="BackgroundImageFix" result="shape"/><feColorMatrix in="SourceAlpha" values="0 0 0 0 0 0 0 0 0 0 0 0 0 0 0 0 0 0 127 0" result="hardAlpha"/><feOffset dy=".5"/><feGaussianBlur stdDeviation="1.25"/><feComposite in2="hardAlpha" operator="arithmetic" k2="-1" k3="1"/><feColorMatrix values="0 0 0 0 0 0 0 0 0 0 0 0 0 0 0 0 0 0 0.1 0"/><feBlend in2="shape" result="effect1_innerShadow_213_33"/></filter></defs></svg>