<svg width="28" height="28" fill="none" xmlns="http://www.w3.org/2000/svg"><g filter="url(#filter0_i_213_45)"><path d="M4.147 13.063s10.438-4.629 14.058-6.259c1.387-.651 6.093-2.738 6.093-2.738s2.172-.913 1.991 1.304c-.06.913-.543 4.108-1.025 7.563-.724 4.89-1.509 10.236-1.509 10.236s-.12 1.5-1.146 1.76c-1.026.261-2.715-.912-3.017-1.173-.241-.196-4.525-3.13-6.093-4.564-.423-.391-.905-1.173.06-2.086 2.172-2.152 4.766-4.825 6.335-6.52.724-.782 1.448-2.608-1.569-.391-4.283 3.194-8.507 6.194-8.507 6.194s-.965.652-2.775.065-3.922-1.37-3.922-1.37-1.448-.977 1.026-2.02z" fill="#fff"/></g><defs><filter id="filter0_i_213_45" x=".93" y=".93" width="26.55" height="27.05" filterUnits="userSpaceOnUse" color-interpolation-filters="sRGB"><feFlood flood-opacity="0" result="BackgroundImageFix"/><feBlend in="SourceGraphic" in2="BackgroundImageFix" result="shape"/><feColorMatrix in="SourceAlpha" values="0 0 0 0 0 0 0 0 0 0 0 0 0 0 0 0 0 0 127 0" result="hardAlpha"/><feOffset dy=".5"/><feGaussianBlur stdDeviation="1.25"/><feComposite in2="hardAlpha" operator="arithmetic" k2="-1" k3="1"/><feColorMatrix values="0 0 0 0 0 0 0 0 0 0 0 0 0 0 0 0 0 0 0.1 0"/><feBlend in2="shape" result="effect1_innerShadow_213_45"/></filter></defs></svg>