<svg width="28" height="28" fill="none" xmlns="http://www.w3.org/2000/svg"><g clip-path="url(#clip0_213_151)" filter="url(#filter0_i_213_151)"><path d="M27.362 5.921c-.859.37-1.762.628-2.686.767.432-.074 1.068-.853 1.321-1.168a4.946 4.946 0 00.865-1.601c0-.043.043-.105 0-.136a.148.148 0 00-.142 0 13.58 13.58 0 01-3.18 1.236.222.222 0 01-.223-.056 3.089 3.089 0 00-.278-.29 5.793 5.793 0 00-1.52-.983 5.338 5.338 0 00-2.364-.39 5.72 5.72 0 00-2.248.619 5.825 5.825 0 00-1.779 1.508 5.713 5.713 0 00-1.08 2.163 5.945 5.945 0 00-.056 2.287c0 .13 0 .149-.111.13-4.403-.649-8.016-2.213-10.968-5.569-.13-.148-.198-.148-.303 0-1.284 1.953-.66 5.044.945 6.57.216.204.439.402.673.588a5.51 5.51 0 01-2.112-.588c-.123-.08-.191-.037-.197.112a3.643 3.643 0 000 .618 5.615 5.615 0 003.458 4.475 3.5 3.5 0 00.698.216 6.311 6.311 0 01-2.069.062c-.148-.03-.204.05-.148.192.908 2.472 2.878 3.226 4.323 3.646.197.031.395.031.617.08l-.037.038c-.426.779-2.149 1.304-2.94 1.576a10.557 10.557 0 01-4.507.581c-.241-.037-.297-.03-.359 0-.061.03 0 .099.068.16.31.205.618.384.939.557.956.522 1.967.936 3.014 1.236 5.422 1.496 11.523.396 15.593-3.653 3.199-3.177 4.323-7.56 4.323-11.948 0-.167.204-.265.32-.352a10.609 10.609 0 002.119-2.213.65.65 0 00.148-.445c0-.093 0-.074-.117-.025z" fill="#fff"/></g><defs><clipPath id="clip0_213_151"><path fill="#fff" transform="translate(.93 .93)" d="M0 0h26.55v26.55H0z"/></clipPath><filter id="filter0_i_213_151" x=".93" y=".93" width="26.55" height="27.05" filterUnits="userSpaceOnUse" color-interpolation-filters="sRGB"><feFlood flood-opacity="0" result="BackgroundImageFix"/><feBlend in="SourceGraphic" in2="BackgroundImageFix" result="shape"/><feColorMatrix in="SourceAlpha" values="0 0 0 0 0 0 0 0 0 0 0 0 0 0 0 0 0 0 127 0" result="hardAlpha"/><feOffset dy=".5"/><feGaussianBlur stdDeviation="1.25"/><feComposite in2="hardAlpha" operator="arithmetic" k2="-1" k3="1"/><feColorMatrix values="0 0 0 0 0 0 0 0 0 0 0 0 0 0 0 0 0 0 0.1 0"/><feBlend in2="shape" result="effect1_innerShadow_213_151"/></filter></defs></svg>